PathFileType	4	(X/Y/Z)	C:\Users\italobelli\Desktop\GitHub\PTbot_officialCBL\Personal_Results\FLX01_noisy2.trc
DataRate	CameraRate	NumFrames	NumMarkers	Units	OrigDataRate	OrigDataStartFrame	OrigNumFrames
106.533333	106.533333	29	9	m	106.533333	101	800
Frame#	Time		gu		centelbow		EpL		centpxt8		centijc7		ij		ts		aa		ai
			X1	Y1	Z1	X2	Y2	Z2	X3	Y3	Z3	X4	Y4	Z4	X5	Y5	Z5	X6	Y6	Z6	X7	Y7	Z7	X8	Y8	Z8	X9	Y9	Z9

101	0.93867	-0.072982	-0.019889	0.1661	0.00082637	-0.24885	0.21856	0.013077	-0.23722	0.24565	-0.046816	-0.15316	-0.008669	-0.046816	0.031938	-0.008669	0	0	0	-0.14124	0.020272	0.052414	-0.1089	0.017757	0.16721	-0.15434	-0.09246	0.058885
102	0.94806	-0.072873	-0.019902	0.16605	0.0032723	-0.24868	0.21898	0.015383	-0.23668	0.24602	-0.046816	-0.15316	-0.008669	-0.046816	0.031938	-0.008669	0	0	0	-0.14137	0.020123	0.05246	-0.10885	0.017737	0.1672	-0.15437	-0.092593	0.059072
103	0.95745	-0.072764	-0.019913	0.16599	0.0057017	-0.24851	0.21938	0.017671	-0.23613	0.24636	-0.046816	-0.15316	-0.008669	-0.046816	0.031938	-0.008669	0	0	0	-0.1415	0.019972	0.052506	-0.1088	0.017719	0.1672	-0.15439	-0.092727	0.059263
104	0.96683	-0.072655	-0.01992	0.16594	0.0081128	-0.24833	0.21975	0.01994	-0.23557	0.24666	-0.046816	-0.15316	-0.008669	-0.046816	0.031938	-0.008669	0	0	0	-0.14163	0.019819	0.052554	-0.10875	0.017703	0.16719	-0.1544	-0.092861	0.059458
105	0.97622	-0.072548	-0.019924	0.16589	0.010504	-0.24815	0.2201	0.022187	-0.23499	0.24694	-0.046816	-0.15316	-0.008669	-0.046816	0.031938	-0.008669	0	0	0	-0.14176	0.019665	0.052602	-0.1087	0.017688	0.16718	-0.1544	-0.092995	0.059657
106	0.98561	-0.072441	-0.019925	0.16583	0.012873	-0.24795	0.22041	0.024411	-0.23439	0.24718	-0.046816	-0.15316	-0.008669	-0.046816	0.031938	-0.008669	0	0	0	-0.14189	0.019508	0.052651	-0.10864	0.017676	0.16718	-0.1544	-0.09313	0.05986
107	0.99499	-0.072335	-0.019922	0.16578	0.015218	-0.24776	0.2207	0.026611	-0.23378	0.24738	-0.046816	-0.15316	-0.008669	-0.046816	0.031938	-0.008669	0	0	0	-0.14202	0.019349	0.052701	-0.10859	0.017665	0.16717	-0.15438	-0.093265	0.060068
108	1.0044	-0.072229	-0.019911	0.16572	0.017549	-0.24753	0.22096	0.028793	-0.23314	0.24756	-0.046816	-0.15316	-0.008669	-0.046816	0.031938	-0.008669	0	0	0	-0.14215	0.019187	0.052754	-0.10853	0.017658	0.16717	-0.15436	-0.093402	0.060284
109	1.0138	-0.072119	-0.019861	0.16567	0.019932	-0.24714	0.22121	0.031022	-0.23234	0.24772	-0.046816	-0.15316	-0.008669	-0.046816	0.031938	-0.008669	0	0	0	-0.14228	0.019005	0.052822	-0.10846	0.017668	0.16716	-0.15432	-0.093555	0.060545
110	1.0232	-0.072003	-0.019766	0.1656	0.022379	-0.24657	0.22146	0.033307	-0.23136	0.24788	-0.046816	-0.15316	-0.008669	-0.046816	0.031938	-0.008669	0	0	0	-0.14241	0.018803	0.052906	-0.10837	0.017697	0.16715	-0.15428	-0.093725	0.060855
111	1.0325	-0.071883	-0.019629	0.16553	0.024885	-0.24581	0.2217	0.035643	-0.23022	0.24803	-0.046816	-0.15316	-0.008669	-0.046816	0.031938	-0.008669	0	0	0	-0.14254	0.018581	0.053007	-0.10826	0.017745	0.16714	-0.15422	-0.093912	0.061213
112	1.0419	-0.071757	-0.01945	0.16546	0.027448	-0.24488	0.22194	0.038029	-0.22891	0.24817	-0.046816	-0.15316	-0.008669	-0.046816	0.031938	-0.008669	0	0	0	-0.14267	0.01834	0.053123	-0.10813	0.01781	0.16713	-0.15416	-0.094114	0.061616
113	1.0513	-0.071628	-0.019231	0.16537	0.030063	-0.24377	0.22218	0.040461	-0.22744	0.24831	-0.046816	-0.15316	-0.008669	-0.046816	0.031938	-0.008669	0	0	0	-0.1428	0.01808	0.053254	-0.10799	0.017893	0.16712	-0.15408	-0.094332	0.062063
114	1.0607	-0.071494	-0.018974	0.16529	0.032727	-0.2425	0.22241	0.042936	-0.22582	0.24845	-0.046816	-0.15316	-0.008669	-0.046816	0.031938	-0.008669	0	0	0	-0.14294	0.017803	0.053399	-0.10783	0.017993	0.16711	-0.154	-0.094563	0.062553
115	1.0701	-0.071356	-0.018679	0.1652	0.035436	-0.24107	0.22264	0.04545	-0.22404	0.24858	-0.046816	-0.15316	-0.008669	-0.046816	0.031938	-0.008669	0	0	0	-0.14307	0.017508	0.053558	-0.10766	0.01811	0.16709	-0.15391	-0.094808	0.063084
116	1.0795	-0.071215	-0.018347	0.1651	0.038188	-0.23949	0.22287	0.048001	-0.22213	0.2487	-0.046816	-0.15316	-0.008669	-0.046816	0.031938	-0.008669	0	0	0	-0.14321	0.017198	0.053729	-0.10747	0.018243	0.16708	-0.1538	-0.095066	0.063654
117	1.0889	-0.071071	-0.017981	0.165	0.040979	-0.23775	0.22309	0.050585	-0.22007	0.24881	-0.046816	-0.15316	-0.008669	-0.046816	0.031938	-0.008669	0	0	0	-0.14334	0.016873	0.053912	-0.10727	0.018391	0.16706	-0.1537	-0.095335	0.064261
118	1.0982	-0.070923	-0.017581	0.16489	0.043804	-0.23587	0.22331	0.053199	-0.21788	0.24893	-0.046816	-0.15316	-0.008669	-0.046816	0.031938	-0.008669	0	0	0	-0.14348	0.016533	0.054106	-0.10706	0.018555	0.16704	-0.15358	-0.095615	0.064904
119	1.1076	-0.070773	-0.017149	0.16478	0.046661	-0.23385	0.22353	0.05584	-0.21556	0.24903	-0.046816	-0.15316	-0.008669	-0.046816	0.031938	-0.008669	0	0	0	-0.14362	0.01618	0.054311	-0.10684	0.018734	0.16702	-0.15345	-0.095906	0.065581
120	1.117	-0.070621	-0.016685	0.16466	0.049546	-0.2317	0.22374	0.058505	-0.21311	0.24913	-0.046816	-0.15316	-0.008669	-0.046816	0.031938	-0.008669	0	0	0	-0.14375	0.015814	0.054525	-0.10661	0.018927	0.167	-0.15332	-0.096205	0.066291
121	1.1264	-0.070466	-0.016192	0.16454	0.052455	-0.22942	0.22395	0.06119	-0.21055	0.24923	-0.046816	-0.15316	-0.008669	-0.046816	0.031938	-0.008669	0	0	0	-0.14389	0.015436	0.054749	-0.10636	0.019134	0.16697	-0.15318	-0.096514	0.067031
122	1.1358	-0.07031	-0.015671	0.16441	0.055385	-0.22701	0.22415	0.063893	-0.20788	0.24932	-0.046816	-0.15316	-0.008669	-0.046816	0.031938	-0.008669	0	0	0	-0.14403	0.015047	0.054981	-0.10611	0.019354	0.16695	-0.15304	-0.096829	0.0678
123	1.1452	-0.070152	-0.015123	0.16428	0.058333	-0.22449	0.22436	0.06661	-0.20509	0.2494	-0.046816	-0.15316	-0.008669	-0.046816	0.031938	-0.008669	0	0	0	-0.14417	0.014647	0.055222	-0.10584	0.019587	0.16692	-0.15288	-0.097152	0.068597
124	1.1546	-0.069992	-0.014549	0.16415	0.061295	-0.22186	0.22456	0.069337	-0.2022	0.24948	-0.046816	-0.15316	-0.008669	-0.046816	0.031938	-0.008669	0	0	0	-0.14431	0.014238	0.055469	-0.10557	0.019833	0.16689	-0.15273	-0.097481	0.069419
125	1.164	-0.069832	-0.013951	0.164	0.064267	-0.21912	0.22475	0.072073	-0.19921	0.24956	-0.046816	-0.15316	-0.008669	-0.046816	0.031938	-0.008669	0	0	0	-0.14445	0.013821	0.055722	-0.1053	0.020091	0.16686	-0.15256	-0.097816	0.070265
126	1.1733	-0.069671	-0.013329	0.16386	0.067246	-0.21628	0.22494	0.074813	-0.19613	0.24963	-0.046816	-0.15316	-0.008669	-0.046816	0.031938	-0.008669	0	0	0	-0.14459	0.013395	0.055981	-0.10501	0.020361	0.16683	-0.15239	-0.098154	0.071134
127	1.1827	-0.06951	-0.012686	0.16371	0.070229	-0.21334	0.22513	0.077555	-0.19296	0.24969	-0.046816	-0.15316	-0.008669	-0.046816	0.031938	-0.008669	0	0	0	-0.14474	0.012963	0.056246	-0.10472	0.020641	0.1668	-0.15222	-0.098497	0.072024
128	1.1921	-0.069349	-0.012022	0.16356	0.073211	-0.21031	0.22532	0.080295	-0.18971	0.24975	-0.046816	-0.15316	-0.008669	-0.046816	0.031938	-0.008669	0	0	0	-0.14488	0.012524	0.056514	-0.10443	0.020933	0.16677	-0.15204	-0.098842	0.072932
129	1.2015	-0.069187	-0.011339	0.1634	0.07619	-0.20719	0.2255	0.08303	-0.18638	0.24981	-0.046816	-0.15316	-0.008669	-0.046816	0.031938	-0.008669	0	0	0	-0.14502	0.012079	0.056786	-0.10413	0.021235	0.16673	-0.15185	-0.099189	0.073858
